<?xml version="1.0" encoding="UTF-8" standalone="no"?>
<!DOCTYPE svg PUBLIC "-//W3C//DTD SVG 1.1//EN"
 "http://www.w3.org/Graphics/SVG/1.1/DTD/svg11.dtd">
<!-- Generated by graphviz version 2.47.0 (20210316.0004)
 -->
<!-- Title: dependencies Pages: 1 -->
<svg width="1149pt" height="284pt"
 viewBox="0.00 0.00 1149.00 284.00" xmlns="http://www.w3.org/2000/svg" xmlns:xlink="http://www.w3.org/1999/xlink">
<g id="graph0" class="graph" transform="scale(1 1) rotate(0) translate(4 280)">
<title>dependencies</title>
<polygon fill="white" stroke="transparent" points="-4,4 -4,-280 1145,-280 1145,4 -4,4"/>
<text text-anchor="start" x="549.51" y="-42.4" font-family="Times-12" font-weight="bold" font-size="14.00">Legend</text>
<polygon fill="#ffffb3" stroke="transparent" points="336.5,-10 336.5,-30 356.5,-30 356.5,-10 336.5,-10"/>
<text text-anchor="start" x="360.13" y="-15.4" font-family="Times-12" font-size="14.00"> &#160;Declarations</text>
<polygon fill="#8dd3c7" stroke="transparent" points="449.5,-10 449.5,-30 469.5,-30 469.5,-10 449.5,-10"/>
<text text-anchor="start" x="473.23" y="-15.4" font-family="Times-12" font-size="14.00"> &#160;Module</text>
<polygon fill="#80b1d3" stroke="transparent" points="535.5,-10 535.5,-30 555.5,-30 555.5,-10 535.5,-10"/>
<text text-anchor="start" x="559.28" y="-15.4" font-family="Times-12" font-size="14.00"> &#160;Bootstrap</text>
<polygon fill="#fdb462" stroke="transparent" points="632.5,-10 632.5,-30 652.5,-30 652.5,-10 632.5,-10"/>
<text text-anchor="start" x="656.17" y="-15.4" font-family="Times-12" font-size="14.00"> &#160;Providers</text>
<polygon fill="#fb8072" stroke="transparent" points="728.5,-10 728.5,-30 748.5,-30 748.5,-10 728.5,-10"/>
<text text-anchor="start" x="752.23" y="-15.4" font-family="Times-12" font-size="14.00"> &#160;Exports</text>
<g id="clust1" class="cluster">
<title>cluster_AuthModule</title>
<polygon fill="none" stroke="black" stroke-dasharray="1,5" points="8,-70 8,-268 1133,-268 1133,-70 8,-70"/>
</g>
<g id="clust4" class="cluster">
<title>cluster_AuthModule_exports</title>
<polygon fill="none" stroke="black" points="457,-208 457,-260 678,-260 678,-208 457,-208"/>
</g>
<g id="clust3" class="cluster">
<title>cluster_AuthModule_imports</title>
<polygon fill="none" stroke="black" points="910,-78 910,-130 1125,-130 1125,-78 910,-78"/>
</g>
<g id="clust6" class="cluster">
<title>cluster_AuthModule_providers</title>
<polygon fill="none" stroke="black" points="16,-78 16,-130 902,-130 902,-78 16,-78"/>
</g>
<!-- GoogleModule -->
<g id="node1" class="node">
<title>GoogleModule</title>
<polygon fill="#8dd3c7" stroke="black" points="1117.26,-122 1114.26,-126 1093.26,-126 1090.26,-122 1016.74,-122 1016.74,-86 1117.26,-86 1117.26,-122"/>
<text text-anchor="middle" x="1067" y="-99.8" font-family="Times,serif" font-size="14.00">GoogleModule</text>
</g>
<!-- AuthModule -->
<g id="node3" class="node">
<title>AuthModule</title>
<polygon fill="#8dd3c7" stroke="black" points="612.55,-187 609.55,-191 588.55,-191 585.55,-187 525.45,-187 525.45,-151 612.55,-151 612.55,-187"/>
<text text-anchor="middle" x="569" y="-164.8" font-family="Times,serif" font-size="14.00">AuthModule</text>
</g>
<!-- GoogleModule&#45;&gt;AuthModule -->
<g id="edge1" class="edge">
<title>GoogleModule&#45;&gt;AuthModule</title>
<path fill="none" stroke="black" d="M1067,-122.29C1067,-144.21 1067,-178 1067,-178 1067,-178 622.76,-178 622.76,-178"/>
<polygon fill="black" stroke="black" points="622.76,-174.5 612.76,-178 622.76,-181.5 622.76,-174.5"/>
</g>
<!-- OtpModule -->
<g id="node2" class="node">
<title>OtpModule</title>
<polygon fill="#8dd3c7" stroke="black" points="998.05,-122 995.05,-126 974.05,-126 971.05,-122 917.95,-122 917.95,-86 998.05,-86 998.05,-122"/>
<text text-anchor="middle" x="958" y="-99.8" font-family="Times,serif" font-size="14.00">OtpModule</text>
</g>
<!-- OtpModule&#45;&gt;AuthModule -->
<g id="edge2" class="edge">
<title>OtpModule&#45;&gt;AuthModule</title>
<path fill="none" stroke="black" d="M958,-122.11C958,-141.34 958,-169 958,-169 958,-169 622.87,-169 622.87,-169"/>
<polygon fill="black" stroke="black" points="622.87,-165.5 612.87,-169 622.87,-172.5 622.87,-165.5"/>
</g>
<!-- AuthService  -->
<g id="node4" class="node">
<title>AuthService </title>
<polygon fill="#fb8072" stroke="black" points="669.98,-252 580.02,-252 580.02,-216 669.98,-216 669.98,-252"/>
<text text-anchor="middle" x="625" y="-229.8" font-family="Times,serif" font-size="14.00">AuthService </text>
</g>
<!-- AuthModule&#45;&gt;AuthService  -->
<g id="edge3" class="edge">
<title>AuthModule&#45;&gt;AuthService </title>
<path fill="none" stroke="black" stroke-dasharray="5,2" d="M596.52,-187.11C596.52,-187.11 596.52,-205.99 596.52,-205.99"/>
<polygon fill="black" stroke="black" points="593.02,-205.99 596.52,-215.99 600.02,-205.99 593.02,-205.99"/>
</g>
<!-- TokenService  -->
<g id="node5" class="node">
<title>TokenService </title>
<polygon fill="#fb8072" stroke="black" points="562.75,-252 465.25,-252 465.25,-216 562.75,-216 562.75,-252"/>
<text text-anchor="middle" x="514" y="-229.8" font-family="Times,serif" font-size="14.00">TokenService </text>
</g>
<!-- AuthModule&#45;&gt;TokenService  -->
<g id="edge4" class="edge">
<title>AuthModule&#45;&gt;TokenService </title>
<path fill="none" stroke="black" stroke-dasharray="5,2" d="M543.92,-187.11C543.92,-187.11 543.92,-205.99 543.92,-205.99"/>
<polygon fill="black" stroke="black" points="540.42,-205.99 543.92,-215.99 547.42,-205.99 540.42,-205.99"/>
</g>
<!-- AnonymousStrategy -->
<g id="node6" class="node">
<title>AnonymousStrategy</title>
<ellipse fill="#fdb462" stroke="black" cx="804" cy="-104" rx="90.35" ry="18"/>
<text text-anchor="middle" x="804" y="-99.8" font-family="Times,serif" font-size="14.00">AnonymousStrategy</text>
</g>
<!-- AnonymousStrategy&#45;&gt;AuthModule -->
<g id="edge5" class="edge">
<title>AnonymousStrategy&#45;&gt;AuthModule</title>
<path fill="none" stroke="black" d="M804,-122.03C804,-138.4 804,-160 804,-160 804,-160 622.65,-160 622.65,-160"/>
<polygon fill="black" stroke="black" points="622.65,-156.5 612.65,-160 622.65,-163.5 622.65,-156.5"/>
</g>
<!-- AuthService -->
<g id="node7" class="node">
<title>AuthService</title>
<ellipse fill="#fdb462" stroke="black" cx="636" cy="-104" rx="59.11" ry="18"/>
<text text-anchor="middle" x="636" y="-99.8" font-family="Times,serif" font-size="14.00">AuthService</text>
</g>
<!-- AuthService&#45;&gt;AuthModule -->
<g id="edge6" class="edge">
<title>AuthService&#45;&gt;AuthModule</title>
<path fill="none" stroke="black" d="M594.73,-117.15C594.73,-117.15 594.73,-140.69 594.73,-140.69"/>
<polygon fill="black" stroke="black" points="591.23,-140.69 594.73,-150.69 598.23,-140.69 591.23,-140.69"/>
</g>
<!-- JwtStrategy -->
<g id="node8" class="node">
<title>JwtStrategy</title>
<ellipse fill="#fdb462" stroke="black" cx="502" cy="-104" rx="56.76" ry="18"/>
<text text-anchor="middle" x="502" y="-99.8" font-family="Times,serif" font-size="14.00">JwtStrategy</text>
</g>
<!-- JwtStrategy&#45;&gt;AuthModule -->
<g id="edge7" class="edge">
<title>JwtStrategy&#45;&gt;AuthModule</title>
<path fill="none" stroke="black" d="M541.93,-116.84C541.93,-116.84 541.93,-140.52 541.93,-140.52"/>
<polygon fill="black" stroke="black" points="538.43,-140.52 541.93,-150.52 545.43,-140.52 538.43,-140.52"/>
</g>
<!-- LocalStrategy -->
<g id="node9" class="node">
<title>LocalStrategy</title>
<ellipse fill="#fdb462" stroke="black" cx="362" cy="-104" rx="65.41" ry="18"/>
<text text-anchor="middle" x="362" y="-99.8" font-family="Times,serif" font-size="14.00">LocalStrategy</text>
</g>
<!-- LocalStrategy&#45;&gt;AuthModule -->
<g id="edge8" class="edge">
<title>LocalStrategy&#45;&gt;AuthModule</title>
<path fill="none" stroke="black" d="M362,-122.03C362,-138.4 362,-160 362,-160 362,-160 515.35,-160 515.35,-160"/>
<polygon fill="black" stroke="black" points="515.35,-163.5 525.35,-160 515.35,-156.5 515.35,-163.5"/>
</g>
<!-- RoleGuard -->
<g id="node10" class="node">
<title>RoleGuard</title>
<ellipse fill="#fdb462" stroke="black" cx="225" cy="-104" rx="53.31" ry="18"/>
<text text-anchor="middle" x="225" y="-99.8" font-family="Times,serif" font-size="14.00">RoleGuard</text>
</g>
<!-- RoleGuard&#45;&gt;AuthModule -->
<g id="edge9" class="edge">
<title>RoleGuard&#45;&gt;AuthModule</title>
<path fill="none" stroke="black" d="M225,-122.11C225,-141.34 225,-169 225,-169 225,-169 515.43,-169 515.43,-169"/>
<polygon fill="black" stroke="black" points="515.43,-172.5 525.43,-169 515.43,-165.5 515.43,-172.5"/>
</g>
<!-- TokenService -->
<g id="node11" class="node">
<title>TokenService</title>
<ellipse fill="#fdb462" stroke="black" cx="89" cy="-104" rx="64.83" ry="18"/>
<text text-anchor="middle" x="89" y="-99.8" font-family="Times,serif" font-size="14.00">TokenService</text>
</g>
<!-- TokenService&#45;&gt;AuthModule -->
<g id="edge10" class="edge">
<title>TokenService&#45;&gt;AuthModule</title>
<path fill="none" stroke="black" d="M89,-122.29C89,-144.21 89,-178 89,-178 89,-178 515.13,-178 515.13,-178"/>
<polygon fill="black" stroke="black" points="515.13,-181.5 525.13,-178 515.13,-174.5 515.13,-181.5"/>
</g>
</g>
</svg>
