<?xml version="1.0" encoding="UTF-8" standalone="no"?>
<!DOCTYPE svg PUBLIC "-//W3C//DTD SVG 1.1//EN"
 "http://www.w3.org/Graphics/SVG/1.1/DTD/svg11.dtd">
<!-- Generated by graphviz version 2.47.0 (20210316.0004)
 -->
<!-- Title: dependencies Pages: 1 -->
<svg width="542pt" height="284pt"
 viewBox="0.00 0.00 542.00 284.00" xmlns="http://www.w3.org/2000/svg" xmlns:xlink="http://www.w3.org/1999/xlink">
<g id="graph0" class="graph" transform="scale(1 1) rotate(0) translate(4 280)">
<title>dependencies</title>
<polygon fill="white" stroke="transparent" points="-4,4 -4,-280 538,-280 538,4 -4,4"/>
<text text-anchor="start" x="246.01" y="-42.4" font-family="Times-12" font-weight="bold" font-size="14.00">Legend</text>
<polygon fill="#ffffb3" stroke="transparent" points="33,-10 33,-30 53,-30 53,-10 33,-10"/>
<text text-anchor="start" x="56.63" y="-15.4" font-family="Times-12" font-size="14.00"> &#160;Declarations</text>
<polygon fill="#8dd3c7" stroke="transparent" points="146,-10 146,-30 166,-30 166,-10 146,-10"/>
<text text-anchor="start" x="169.73" y="-15.4" font-family="Times-12" font-size="14.00"> &#160;Module</text>
<polygon fill="#80b1d3" stroke="transparent" points="232,-10 232,-30 252,-30 252,-10 232,-10"/>
<text text-anchor="start" x="255.78" y="-15.4" font-family="Times-12" font-size="14.00"> &#160;Bootstrap</text>
<polygon fill="#fdb462" stroke="transparent" points="329,-10 329,-30 349,-30 349,-10 329,-10"/>
<text text-anchor="start" x="352.67" y="-15.4" font-family="Times-12" font-size="14.00"> &#160;Providers</text>
<polygon fill="#fb8072" stroke="transparent" points="425,-10 425,-30 445,-30 445,-10 425,-10"/>
<text text-anchor="start" x="448.73" y="-15.4" font-family="Times-12" font-size="14.00"> &#160;Exports</text>
<g id="clust1" class="cluster">
<title>cluster_SmsModule</title>
<polygon fill="none" stroke="black" stroke-dasharray="1,5" points="8,-70 8,-268 526,-268 526,-70 8,-70"/>
</g>
<g id="clust6" class="cluster">
<title>cluster_SmsModule_providers</title>
<polygon fill="none" stroke="black" points="388,-78 388,-130 518,-130 518,-78 388,-78"/>
</g>
<g id="clust4" class="cluster">
<title>cluster_SmsModule_exports</title>
<polygon fill="none" stroke="black" points="215,-208 215,-260 317,-260 317,-208 215,-208"/>
</g>
<g id="clust3" class="cluster">
<title>cluster_SmsModule_imports</title>
<polygon fill="none" stroke="black" points="16,-78 16,-130 380,-130 380,-78 16,-78"/>
</g>
<!-- MailModule -->
<g id="node1" class="node">
<title>MailModule</title>
<polygon fill="#8dd3c7" stroke="black" points="371.99,-122 368.99,-126 347.99,-126 344.99,-122 286.01,-122 286.01,-86 371.99,-86 371.99,-122"/>
<text text-anchor="middle" x="329" y="-99.8" font-family="Times,serif" font-size="14.00">MailModule</text>
</g>
<!-- SmsModule -->
<g id="node4" class="node">
<title>SmsModule</title>
<polygon fill="#8dd3c7" stroke="black" points="307.67,-187 304.67,-191 283.67,-191 280.67,-187 224.33,-187 224.33,-151 307.67,-151 307.67,-187"/>
<text text-anchor="middle" x="266" y="-164.8" font-family="Times,serif" font-size="14.00">SmsModule</text>
</g>
<!-- MailModule&#45;&gt;SmsModule -->
<g id="edge1" class="edge">
<title>MailModule&#45;&gt;SmsModule</title>
<path fill="none" stroke="black" d="M296.92,-122.11C296.92,-122.11 296.92,-140.99 296.92,-140.99"/>
<polygon fill="black" stroke="black" points="293.42,-140.99 296.92,-150.99 300.42,-140.99 293.42,-140.99"/>
</g>
<!-- SendChampModule -->
<g id="node2" class="node">
<title>SendChampModule</title>
<polygon fill="#8dd3c7" stroke="black" points="267.99,-122 264.99,-126 243.99,-126 240.99,-122 140.01,-122 140.01,-86 267.99,-86 267.99,-122"/>
<text text-anchor="middle" x="204" y="-99.8" font-family="Times,serif" font-size="14.00">SendChampModule</text>
</g>
<!-- SendChampModule&#45;&gt;SmsModule -->
<g id="edge2" class="edge">
<title>SendChampModule&#45;&gt;SmsModule</title>
<path fill="none" stroke="black" d="M246.08,-122.11C246.08,-122.11 246.08,-140.99 246.08,-140.99"/>
<polygon fill="black" stroke="black" points="242.58,-140.99 246.08,-150.99 249.58,-140.99 242.58,-140.99"/>
</g>
<!-- TermiiModule -->
<g id="node3" class="node">
<title>TermiiModule</title>
<polygon fill="#8dd3c7" stroke="black" points="121.65,-122 118.65,-126 97.65,-126 94.65,-122 24.35,-122 24.35,-86 121.65,-86 121.65,-122"/>
<text text-anchor="middle" x="73" y="-99.8" font-family="Times,serif" font-size="14.00">TermiiModule</text>
</g>
<!-- TermiiModule&#45;&gt;SmsModule -->
<g id="edge3" class="edge">
<title>TermiiModule&#45;&gt;SmsModule</title>
<path fill="none" stroke="black" d="M73,-122.11C73,-141.34 73,-169 73,-169 73,-169 214.12,-169 214.12,-169"/>
<polygon fill="black" stroke="black" points="214.12,-172.5 224.12,-169 214.12,-165.5 214.12,-172.5"/>
</g>
<!-- SmsService  -->
<g id="node5" class="node">
<title>SmsService </title>
<polygon fill="#fb8072" stroke="black" points="308.6,-252 223.4,-252 223.4,-216 308.6,-216 308.6,-252"/>
<text text-anchor="middle" x="266" y="-229.8" font-family="Times,serif" font-size="14.00">SmsService </text>
</g>
<!-- SmsModule&#45;&gt;SmsService  -->
<g id="edge4" class="edge">
<title>SmsModule&#45;&gt;SmsService </title>
<path fill="none" stroke="black" stroke-dasharray="5,2" d="M266,-187.11C266,-187.11 266,-205.99 266,-205.99"/>
<polygon fill="black" stroke="black" points="262.5,-205.99 266,-215.99 269.5,-205.99 262.5,-205.99"/>
</g>
<!-- SmsService -->
<g id="node6" class="node">
<title>SmsService</title>
<ellipse fill="#fdb462" stroke="black" cx="453" cy="-104" rx="56.76" ry="18"/>
<text text-anchor="middle" x="453" y="-99.8" font-family="Times,serif" font-size="14.00">SmsService</text>
</g>
<!-- SmsService&#45;&gt;SmsModule -->
<g id="edge5" class="edge">
<title>SmsService&#45;&gt;SmsModule</title>
<path fill="none" stroke="black" d="M453,-122.11C453,-141.34 453,-169 453,-169 453,-169 317.97,-169 317.97,-169"/>
<polygon fill="black" stroke="black" points="317.97,-165.5 307.97,-169 317.97,-172.5 317.97,-165.5"/>
</g>
</g>
</svg>
