<?xml version="1.0" encoding="UTF-8" standalone="no"?>
<!DOCTYPE svg PUBLIC "-//W3C//DTD SVG 1.1//EN"
 "http://www.w3.org/Graphics/SVG/1.1/DTD/svg11.dtd">
<!-- Generated by graphviz version 2.47.0 (20210316.0004)
 -->
<!-- Title: dependencies Pages: 1 -->
<svg width="504pt" height="284pt"
 viewBox="0.00 0.00 504.00 284.00" xmlns="http://www.w3.org/2000/svg" xmlns:xlink="http://www.w3.org/1999/xlink">
<g id="graph0" class="graph" transform="scale(1 1) rotate(0) translate(4 280)">
<title>dependencies</title>
<polygon fill="white" stroke="transparent" points="-4,4 -4,-280 500,-280 500,4 -4,4"/>
<text text-anchor="start" x="227.01" y="-42.4" font-family="Times-12" font-weight="bold" font-size="14.00">Legend</text>
<polygon fill="#ffffb3" stroke="transparent" points="14,-10 14,-30 34,-30 34,-10 14,-10"/>
<text text-anchor="start" x="37.63" y="-15.4" font-family="Times-12" font-size="14.00"> &#160;Declarations</text>
<polygon fill="#8dd3c7" stroke="transparent" points="127,-10 127,-30 147,-30 147,-10 127,-10"/>
<text text-anchor="start" x="150.73" y="-15.4" font-family="Times-12" font-size="14.00"> &#160;Module</text>
<polygon fill="#80b1d3" stroke="transparent" points="213,-10 213,-30 233,-30 233,-10 213,-10"/>
<text text-anchor="start" x="236.78" y="-15.4" font-family="Times-12" font-size="14.00"> &#160;Bootstrap</text>
<polygon fill="#fdb462" stroke="transparent" points="310,-10 310,-30 330,-30 330,-10 310,-10"/>
<text text-anchor="start" x="333.67" y="-15.4" font-family="Times-12" font-size="14.00"> &#160;Providers</text>
<polygon fill="#fb8072" stroke="transparent" points="406,-10 406,-30 426,-30 426,-10 406,-10"/>
<text text-anchor="start" x="429.73" y="-15.4" font-family="Times-12" font-size="14.00"> &#160;Exports</text>
<g id="clust1" class="cluster">
<title>cluster_OtpModule</title>
<polygon fill="none" stroke="black" stroke-dasharray="1,5" points="20,-70 20,-268 476,-268 476,-70 20,-70"/>
</g>
<g id="clust4" class="cluster">
<title>cluster_OtpModule_exports</title>
<polygon fill="none" stroke="black" points="184,-208 184,-260 282,-260 282,-208 184,-208"/>
</g>
<g id="clust6" class="cluster">
<title>cluster_OtpModule_providers</title>
<polygon fill="none" stroke="black" points="344,-78 344,-130 468,-130 468,-78 344,-78"/>
</g>
<g id="clust3" class="cluster">
<title>cluster_OtpModule_imports</title>
<polygon fill="none" stroke="black" points="28,-78 28,-130 336,-130 336,-78 28,-78"/>
</g>
<!-- MailModule -->
<g id="node1" class="node">
<title>MailModule</title>
<polygon fill="#8dd3c7" stroke="black" points="327.99,-122 324.99,-126 303.99,-126 300.99,-122 242.01,-122 242.01,-86 327.99,-86 327.99,-122"/>
<text text-anchor="middle" x="285" y="-99.8" font-family="Times,serif" font-size="14.00">MailModule</text>
</g>
<!-- OtpModule -->
<g id="node4" class="node">
<title>OtpModule</title>
<polygon fill="#8dd3c7" stroke="black" points="273.05,-187 270.05,-191 249.05,-191 246.05,-187 192.95,-187 192.95,-151 273.05,-151 273.05,-187"/>
<text text-anchor="middle" x="233" y="-164.8" font-family="Times,serif" font-size="14.00">OtpModule</text>
</g>
<!-- MailModule&#45;&gt;OtpModule -->
<g id="edge1" class="edge">
<title>MailModule&#45;&gt;OtpModule</title>
<path fill="none" stroke="black" d="M257.64,-122.11C257.64,-122.11 257.64,-140.99 257.64,-140.99"/>
<polygon fill="black" stroke="black" points="254.14,-140.99 257.64,-150.99 261.14,-140.99 254.14,-140.99"/>
</g>
<!-- SmsModule -->
<g id="node2" class="node">
<title>SmsModule</title>
<polygon fill="#8dd3c7" stroke="black" points="223.67,-122 220.67,-126 199.67,-126 196.67,-122 140.33,-122 140.33,-86 223.67,-86 223.67,-122"/>
<text text-anchor="middle" x="182" y="-99.8" font-family="Times,serif" font-size="14.00">SmsModule</text>
</g>
<!-- SmsModule&#45;&gt;OtpModule -->
<g id="edge2" class="edge">
<title>SmsModule&#45;&gt;OtpModule</title>
<path fill="none" stroke="black" d="M208.28,-122.11C208.28,-122.11 208.28,-140.99 208.28,-140.99"/>
<polygon fill="black" stroke="black" points="204.78,-140.99 208.28,-150.99 211.78,-140.99 204.78,-140.99"/>
</g>
<!-- UserModule -->
<g id="node3" class="node">
<title>UserModule</title>
<polygon fill="#8dd3c7" stroke="black" points="121.98,-122 118.98,-126 97.98,-126 94.98,-122 36.02,-122 36.02,-86 121.98,-86 121.98,-122"/>
<text text-anchor="middle" x="79" y="-99.8" font-family="Times,serif" font-size="14.00">UserModule</text>
</g>
<!-- UserModule&#45;&gt;OtpModule -->
<g id="edge3" class="edge">
<title>UserModule&#45;&gt;OtpModule</title>
<path fill="none" stroke="black" d="M79,-122.11C79,-141.34 79,-169 79,-169 79,-169 182.94,-169 182.94,-169"/>
<polygon fill="black" stroke="black" points="182.94,-172.5 192.94,-169 182.94,-165.5 182.94,-172.5"/>
</g>
<!-- OtpService  -->
<g id="node5" class="node">
<title>OtpService </title>
<polygon fill="#fb8072" stroke="black" points="274.48,-252 191.52,-252 191.52,-216 274.48,-216 274.48,-252"/>
<text text-anchor="middle" x="233" y="-229.8" font-family="Times,serif" font-size="14.00">OtpService </text>
</g>
<!-- OtpModule&#45;&gt;OtpService  -->
<g id="edge4" class="edge">
<title>OtpModule&#45;&gt;OtpService </title>
<path fill="none" stroke="black" stroke-dasharray="5,2" d="M233,-187.11C233,-187.11 233,-205.99 233,-205.99"/>
<polygon fill="black" stroke="black" points="229.5,-205.99 233,-215.99 236.5,-205.99 229.5,-205.99"/>
</g>
<!-- OtpService -->
<g id="node6" class="node">
<title>OtpService</title>
<ellipse fill="#fdb462" stroke="black" cx="406" cy="-104" rx="54.45" ry="18"/>
<text text-anchor="middle" x="406" y="-99.8" font-family="Times,serif" font-size="14.00">OtpService</text>
</g>
<!-- OtpService&#45;&gt;OtpModule -->
<g id="edge5" class="edge">
<title>OtpService&#45;&gt;OtpModule</title>
<path fill="none" stroke="black" d="M406,-122.11C406,-141.34 406,-169 406,-169 406,-169 283.12,-169 283.12,-169"/>
<polygon fill="black" stroke="black" points="283.12,-165.5 273.12,-169 283.12,-172.5 283.12,-165.5"/>
</g>
</g>
</svg>
