<?xml version="1.0" encoding="UTF-8" standalone="no"?>
<!DOCTYPE svg PUBLIC "-//W3C//DTD SVG 1.1//EN"
 "http://www.w3.org/Graphics/SVG/1.1/DTD/svg11.dtd">
<!-- Generated by graphviz version 2.47.0 (20210316.0004)
 -->
<!-- Title: dependencies Pages: 1 -->
<svg width="962pt" height="211pt"
 viewBox="0.00 0.00 962.00 211.00" xmlns="http://www.w3.org/2000/svg" xmlns:xlink="http://www.w3.org/1999/xlink">
<g id="graph0" class="graph" transform="scale(1 1) rotate(0) translate(4 207)">
<title>dependencies</title>
<polygon fill="white" stroke="transparent" points="-4,4 -4,-207 958,-207 958,4 -4,4"/>
<text text-anchor="start" x="456.01" y="-42.4" font-family="Times-12" font-weight="bold" font-size="14.00">Legend</text>
<polygon fill="#ffffb3" stroke="transparent" points="243,-10 243,-30 263,-30 263,-10 243,-10"/>
<text text-anchor="start" x="266.63" y="-15.4" font-family="Times-12" font-size="14.00"> &#160;Declarations</text>
<polygon fill="#8dd3c7" stroke="transparent" points="356,-10 356,-30 376,-30 376,-10 356,-10"/>
<text text-anchor="start" x="379.73" y="-15.4" font-family="Times-12" font-size="14.00"> &#160;Module</text>
<polygon fill="#80b1d3" stroke="transparent" points="442,-10 442,-30 462,-30 462,-10 442,-10"/>
<text text-anchor="start" x="465.78" y="-15.4" font-family="Times-12" font-size="14.00"> &#160;Bootstrap</text>
<polygon fill="#fdb462" stroke="transparent" points="539,-10 539,-30 559,-30 559,-10 539,-10"/>
<text text-anchor="start" x="562.67" y="-15.4" font-family="Times-12" font-size="14.00"> &#160;Providers</text>
<polygon fill="#fb8072" stroke="transparent" points="635,-10 635,-30 655,-30 655,-10 635,-10"/>
<text text-anchor="start" x="658.73" y="-15.4" font-family="Times-12" font-size="14.00"> &#160;Exports</text>
<g id="clust1" class="cluster">
<title>cluster_AppModule</title>
<polygon fill="none" stroke="black" stroke-dasharray="1,5" points="8,-70 8,-195 946,-195 946,-70 8,-70"/>
</g>
<g id="clust6" class="cluster">
<title>cluster_AppModule_providers</title>
<polygon fill="none" stroke="black" points="808,-78 808,-130 938,-130 938,-78 808,-78"/>
</g>
<g id="clust3" class="cluster">
<title>cluster_AppModule_imports</title>
<polygon fill="none" stroke="black" points="16,-78 16,-130 800,-130 800,-78 16,-78"/>
</g>
<!-- AuthModule -->
<g id="node1" class="node">
<title>AuthModule</title>
<polygon fill="#8dd3c7" stroke="black" points="791.55,-122 788.55,-126 767.55,-126 764.55,-122 704.45,-122 704.45,-86 791.55,-86 791.55,-122"/>
<text text-anchor="middle" x="748" y="-99.8" font-family="Times,serif" font-size="14.00">AuthModule</text>
</g>
<!-- AppModule -->
<g id="node8" class="node">
<title>AppModule</title>
<polygon fill="#8dd3c7" stroke="black" points="526.66,-187 523.66,-191 502.66,-191 499.66,-187 443.34,-187 443.34,-151 526.66,-151 526.66,-187"/>
<text text-anchor="middle" x="485" y="-164.8" font-family="Times,serif" font-size="14.00">AppModule</text>
</g>
<!-- AuthModule&#45;&gt;AppModule -->
<g id="edge1" class="edge">
<title>AuthModule&#45;&gt;AppModule</title>
<path fill="none" stroke="black" d="M748,-122.11C748,-141.34 748,-169 748,-169 748,-169 536.67,-169 536.67,-169"/>
<polygon fill="black" stroke="black" points="536.67,-165.5 526.67,-169 536.67,-172.5 536.67,-165.5"/>
</g>
<!-- LoanModule -->
<g id="node2" class="node">
<title>LoanModule</title>
<polygon fill="#8dd3c7" stroke="black" points="686.32,-122 683.32,-126 662.32,-126 659.32,-122 597.68,-122 597.68,-86 686.32,-86 686.32,-122"/>
<text text-anchor="middle" x="642" y="-99.8" font-family="Times,serif" font-size="14.00">LoanModule</text>
</g>
<!-- LoanModule&#45;&gt;AppModule -->
<g id="edge2" class="edge">
<title>LoanModule&#45;&gt;AppModule</title>
<path fill="none" stroke="black" d="M642,-122.03C642,-138.4 642,-160 642,-160 642,-160 536.66,-160 536.66,-160"/>
<polygon fill="black" stroke="black" points="536.66,-156.5 526.66,-160 536.66,-163.5 536.66,-156.5"/>
</g>
<!-- MailModule -->
<g id="node3" class="node">
<title>MailModule</title>
<polygon fill="#8dd3c7" stroke="black" points="579.99,-122 576.99,-126 555.99,-126 552.99,-122 494.01,-122 494.01,-86 579.99,-86 579.99,-122"/>
<text text-anchor="middle" x="537" y="-99.8" font-family="Times,serif" font-size="14.00">MailModule</text>
</g>
<!-- MailModule&#45;&gt;AppModule -->
<g id="edge3" class="edge">
<title>MailModule&#45;&gt;AppModule</title>
<path fill="none" stroke="black" d="M510.42,-122.11C510.42,-122.11 510.42,-140.99 510.42,-140.99"/>
<polygon fill="black" stroke="black" points="506.92,-140.99 510.42,-150.99 513.92,-140.99 506.92,-140.99"/>
</g>
<!-- RoleModule -->
<g id="node4" class="node">
<title>RoleModule</title>
<polygon fill="#8dd3c7" stroke="black" points="475.99,-122 472.99,-126 451.99,-126 448.99,-122 390.01,-122 390.01,-86 475.99,-86 475.99,-122"/>
<text text-anchor="middle" x="433" y="-99.8" font-family="Times,serif" font-size="14.00">RoleModule</text>
</g>
<!-- RoleModule&#45;&gt;AppModule -->
<g id="edge4" class="edge">
<title>RoleModule&#45;&gt;AppModule</title>
<path fill="none" stroke="black" d="M459.58,-122.11C459.58,-122.11 459.58,-140.99 459.58,-140.99"/>
<polygon fill="black" stroke="black" points="456.08,-140.99 459.58,-150.99 463.08,-140.99 456.08,-140.99"/>
</g>
<!-- SendChampModule -->
<g id="node5" class="node">
<title>SendChampModule</title>
<polygon fill="#8dd3c7" stroke="black" points="371.99,-122 368.99,-126 347.99,-126 344.99,-122 244.01,-122 244.01,-86 371.99,-86 371.99,-122"/>
<text text-anchor="middle" x="308" y="-99.8" font-family="Times,serif" font-size="14.00">SendChampModule</text>
</g>
<!-- SendChampModule&#45;&gt;AppModule -->
<g id="edge5" class="edge">
<title>SendChampModule&#45;&gt;AppModule</title>
<path fill="none" stroke="black" d="M308,-122.03C308,-138.4 308,-160 308,-160 308,-160 433.05,-160 433.05,-160"/>
<polygon fill="black" stroke="black" points="433.05,-163.5 443.05,-160 433.05,-156.5 433.05,-163.5"/>
</g>
<!-- TermiiModule -->
<g id="node6" class="node">
<title>TermiiModule</title>
<polygon fill="#8dd3c7" stroke="black" points="225.65,-122 222.65,-126 201.65,-126 198.65,-122 128.35,-122 128.35,-86 225.65,-86 225.65,-122"/>
<text text-anchor="middle" x="177" y="-99.8" font-family="Times,serif" font-size="14.00">TermiiModule</text>
</g>
<!-- TermiiModule&#45;&gt;AppModule -->
<g id="edge6" class="edge">
<title>TermiiModule&#45;&gt;AppModule</title>
<path fill="none" stroke="black" d="M177,-122.11C177,-141.34 177,-169 177,-169 177,-169 433.14,-169 433.14,-169"/>
<polygon fill="black" stroke="black" points="433.14,-172.5 443.14,-169 433.14,-165.5 433.14,-172.5"/>
</g>
<!-- UserModule -->
<g id="node7" class="node">
<title>UserModule</title>
<polygon fill="#8dd3c7" stroke="black" points="109.98,-122 106.98,-126 85.98,-126 82.98,-122 24.02,-122 24.02,-86 109.98,-86 109.98,-122"/>
<text text-anchor="middle" x="67" y="-99.8" font-family="Times,serif" font-size="14.00">UserModule</text>
</g>
<!-- UserModule&#45;&gt;AppModule -->
<g id="edge7" class="edge">
<title>UserModule&#45;&gt;AppModule</title>
<path fill="none" stroke="black" d="M67,-122.29C67,-144.21 67,-178 67,-178 67,-178 433.01,-178 433.01,-178"/>
<polygon fill="black" stroke="black" points="433.01,-181.5 443.01,-178 433.01,-174.5 433.01,-181.5"/>
</g>
<!-- AppService -->
<g id="node9" class="node">
<title>AppService</title>
<ellipse fill="#fdb462" stroke="black" cx="873" cy="-104" rx="56.74" ry="18"/>
<text text-anchor="middle" x="873" y="-99.8" font-family="Times,serif" font-size="14.00">AppService</text>
</g>
<!-- AppService&#45;&gt;AppModule -->
<g id="edge8" class="edge">
<title>AppService&#45;&gt;AppModule</title>
<path fill="none" stroke="black" d="M873,-122.29C873,-144.21 873,-178 873,-178 873,-178 536.89,-178 536.89,-178"/>
<polygon fill="black" stroke="black" points="536.89,-174.5 526.89,-178 536.89,-181.5 536.89,-174.5"/>
</g>
</g>
</svg>
