<?xml version="1.0" encoding="UTF-8" standalone="no"?>
<!DOCTYPE svg PUBLIC "-//W3C//DTD SVG 1.1//EN"
 "http://www.w3.org/Graphics/SVG/1.1/DTD/svg11.dtd">
<!-- Generated by graphviz version 2.47.0 (20210316.0004)
 -->
<!-- Title: dependencies Pages: 1 -->
<svg width="504pt" height="284pt"
 viewBox="0.00 0.00 504.00 284.00" xmlns="http://www.w3.org/2000/svg" xmlns:xlink="http://www.w3.org/1999/xlink">
<g id="graph0" class="graph" transform="scale(1 1) rotate(0) translate(4 280)">
<title>dependencies</title>
<polygon fill="white" stroke="transparent" points="-4,4 -4,-280 500,-280 500,4 -4,4"/>
<text text-anchor="start" x="227.01" y="-42.4" font-family="Times-12" font-weight="bold" font-size="14.00">Legend</text>
<polygon fill="#ffffb3" stroke="transparent" points="14,-10 14,-30 34,-30 34,-10 14,-10"/>
<text text-anchor="start" x="37.63" y="-15.4" font-family="Times-12" font-size="14.00"> &#160;Declarations</text>
<polygon fill="#8dd3c7" stroke="transparent" points="127,-10 127,-30 147,-30 147,-10 127,-10"/>
<text text-anchor="start" x="150.73" y="-15.4" font-family="Times-12" font-size="14.00"> &#160;Module</text>
<polygon fill="#80b1d3" stroke="transparent" points="213,-10 213,-30 233,-30 233,-10 213,-10"/>
<text text-anchor="start" x="236.78" y="-15.4" font-family="Times-12" font-size="14.00"> &#160;Bootstrap</text>
<polygon fill="#fdb462" stroke="transparent" points="310,-10 310,-30 330,-30 330,-10 310,-10"/>
<text text-anchor="start" x="333.67" y="-15.4" font-family="Times-12" font-size="14.00"> &#160;Providers</text>
<polygon fill="#fb8072" stroke="transparent" points="406,-10 406,-30 426,-30 426,-10 406,-10"/>
<text text-anchor="start" x="429.73" y="-15.4" font-family="Times-12" font-size="14.00"> &#160;Exports</text>
<g id="clust1" class="cluster">
<title>cluster_RoleModule</title>
<polygon fill="none" stroke="black" stroke-dasharray="1,5" points="119,-70 119,-268 377,-268 377,-70 119,-70"/>
</g>
<g id="clust3" class="cluster">
<title>cluster_RoleModule_imports</title>
<polygon fill="none" stroke="black" points="267,-78 267,-130 369,-130 369,-78 267,-78"/>
</g>
<g id="clust4" class="cluster">
<title>cluster_RoleModule_exports</title>
<polygon fill="none" stroke="black" points="203,-208 203,-260 307,-260 307,-208 203,-208"/>
</g>
<g id="clust6" class="cluster">
<title>cluster_RoleModule_providers</title>
<polygon fill="none" stroke="black" points="127,-78 127,-130 259,-130 259,-78 127,-78"/>
</g>
<!-- UserModule -->
<g id="node1" class="node">
<title>UserModule</title>
<polygon fill="#8dd3c7" stroke="black" points="360.98,-122 357.98,-126 336.98,-126 333.98,-122 275.02,-122 275.02,-86 360.98,-86 360.98,-122"/>
<text text-anchor="middle" x="318" y="-99.8" font-family="Times,serif" font-size="14.00">UserModule</text>
</g>
<!-- RoleModule -->
<g id="node2" class="node">
<title>RoleModule</title>
<polygon fill="#8dd3c7" stroke="black" points="297.99,-187 294.99,-191 273.99,-191 270.99,-187 212.01,-187 212.01,-151 297.99,-151 297.99,-187"/>
<text text-anchor="middle" x="255" y="-164.8" font-family="Times,serif" font-size="14.00">RoleModule</text>
</g>
<!-- UserModule&#45;&gt;RoleModule -->
<g id="edge1" class="edge">
<title>UserModule&#45;&gt;RoleModule</title>
<path fill="none" stroke="black" d="M286.5,-122.11C286.5,-122.11 286.5,-140.99 286.5,-140.99"/>
<polygon fill="black" stroke="black" points="283,-140.99 286.5,-150.99 290,-140.99 283,-140.99"/>
</g>
<!-- RoleService  -->
<g id="node3" class="node">
<title>RoleService </title>
<polygon fill="#fb8072" stroke="black" points="298.92,-252 211.08,-252 211.08,-216 298.92,-216 298.92,-252"/>
<text text-anchor="middle" x="255" y="-229.8" font-family="Times,serif" font-size="14.00">RoleService </text>
</g>
<!-- RoleModule&#45;&gt;RoleService  -->
<g id="edge2" class="edge">
<title>RoleModule&#45;&gt;RoleService </title>
<path fill="none" stroke="black" stroke-dasharray="5,2" d="M255,-187.11C255,-187.11 255,-205.99 255,-205.99"/>
<polygon fill="black" stroke="black" points="251.5,-205.99 255,-215.99 258.5,-205.99 251.5,-205.99"/>
</g>
<!-- RoleService -->
<g id="node4" class="node">
<title>RoleService</title>
<ellipse fill="#fdb462" stroke="black" cx="193" cy="-104" rx="58.46" ry="18"/>
<text text-anchor="middle" x="193" y="-99.8" font-family="Times,serif" font-size="14.00">RoleService</text>
</g>
<!-- RoleService&#45;&gt;RoleModule -->
<g id="edge3" class="edge">
<title>RoleService&#45;&gt;RoleModule</title>
<path fill="none" stroke="black" d="M231.62,-117.78C231.62,-117.78 231.62,-140.55 231.62,-140.55"/>
<polygon fill="black" stroke="black" points="228.12,-140.55 231.62,-150.55 235.12,-140.55 228.12,-140.55"/>
</g>
</g>
</svg>
